<?xml version="1.0" standalone="no"?>
<!DOCTYPE svg PUBLIC "-//W3C//DTD SVG 1.1//EN" "http://www.w3.org/Graphics/SVG/1.1/DTD/svg11.dtd" >
<!--
2013-9-30: Created.
-->
<svg>
<metadata>
Created by iconfont
</metadata>
<defs>

<font id="iconfont" horiz-adv-x="1024" >
  <font-face
    font-family="iconfont"
    font-weight="500"
    font-stretch="normal"
    units-per-em="1024"
    ascent="896"
    descent="-128"
  />
    <missing-glyph />
    
    <glyph glyph-name="x" unicode="x" horiz-adv-x="1001"
d="M281 543q-27 -1 -53 -1h-83q-18 0 -36.5 -6t-32.5 -18.5t-23 -32t-9 -45.5v-76h912v41q0 16 -0.5 30t-0.5 18q0 13 -5 29t-17 29.5t-31.5 22.5t-49.5 9h-133v-97h-438v97zM955 310v-52q0 -23 0.5 -52t0.5 -58t-10.5 -47.5t-26 -30t-33 -16t-31.5 -4.5q-14 -1 -29.5 -0.5
t-29.5 0.5h-32l-45 128h-439l-44 -128h-29h-34q-20 0 -45 1q-25 0 -41 9.5t-25.5 23t-13.5 29.5t-4 30v167h911zM163 247q-12 0 -21 -8.5t-9 -21.5t9 -21.5t21 -8.5q13 0 22 8.5t9 21.5t-9 21.5t-22 8.5zM316 123q-8 -26 -14 -48q-5 -19 -10.5 -37t-7.5 -25t-3 -15t1 -14.5
t9.5 -10.5t21.5 -4h37h67h81h80h64h36q23 0 34 12t2 38q-5 13 -9.5 30.5t-9.5 34.5q-5 19 -11 39h-368zM336 498v228q0 11 2.5 23t10 21.5t20.5 15.5t34 6h188q31 0 51.5 -14.5t20.5 -52.5v-227h-327z" />
    

    
    <glyph glyph-name="bar" unicode="&#58886;" d="M299.712 79.168h28.352a56.96 56.96 0 0 1 56.896 56.96V516.992a56.96 56.96 0 0 1-56.896 56.96h-28.352a56.96 56.96 0 0 1-56.896-56.96v-380.864c0-31.424 25.472-56.96 56.896-56.96z m-11.392 437.824a11.52 11.52 0 0 0 11.392 11.392h28.352a11.52 11.52 0 0 0 11.456-11.392v-380.864a11.52 11.52 0 0 0-11.456-11.392h-28.352a11.52 11.52 0 0 0-11.392 11.392V516.992zM510.144 79.168h28.288a56.96 56.96 0 0 1 56.896 56.96V698.88a56.96 56.96 0 0 1-56.896 56.96h-28.288a56.96 56.96 0 0 1-56.96-56.96v-562.752c0-31.424 25.472-56.96 56.96-56.96zM498.688 698.88c0 6.272 5.248 11.52 11.456 11.52h28.288a11.52 11.52 0 0 0 11.392-11.52v-562.752a11.52 11.52 0 0 0-11.392-11.392h-28.288a11.52 11.52 0 0 0-11.456 11.392V698.88zM717.632 79.168h28.288a56.96 56.96 0 0 1 56.96 56.96V383.36a56.96 56.96 0 0 1-56.96 56.896h-28.288a56.96 56.96 0 0 1-56.896-56.896v-247.232c0-31.424 25.536-56.96 56.896-56.96z m-11.456 304.192a11.52 11.52 0 0 0 11.456 11.392h28.288a11.52 11.52 0 0 0 11.456-11.392v-247.232a11.52 11.52 0 0 0-11.456-11.392h-28.288a11.52 11.52 0 0 0-11.456 11.392V383.36zM857.792 37.44H183.04a22.656 22.656 0 0 1 0-45.376h674.752a22.72 22.72 0 0 1 0 45.376z"  horiz-adv-x="1024" />

    
    <glyph glyph-name="details" unicode="&#58887;" d="M836.288 757.568H202.368a62.272 62.272 0 0 1-62.144-62.144v-645.888c0-34.24 27.904-62.208 62.144-62.208h633.92a62.336 62.336 0 0 1 62.208 62.208V695.424a62.208 62.208 0 0 1-62.208 62.144z m12.544-708.032c0-6.72-5.76-12.48-12.48-12.48H202.368a12.608 12.608 0 0 0-12.352 12.48V695.424c0 6.72 5.632 12.416 12.352 12.416h633.92c6.72 0 12.48-5.696 12.48-12.416v-645.888zM765.312 568.128H487.808a83.84 83.84 0 0 1-79.68 59.008c-37.568 0-69.056-24.96-79.68-59.008h-50.752a24.896 24.896 0 1 1 0-49.728h50.752c10.624-34.112 42.112-58.944 79.68-58.944 37.44 0 68.992 24.896 79.68 59.008h277.504a24.832 24.832 0 0 1 0 49.664z m-357.184-59.008a34.176 34.176 0 1 0 0 68.416 34.176 34.176 0 0 0 0-68.416zM765.312 384.896h-67.648c-10.688 34.112-42.112 59.072-79.68 59.072s-68.992-24.96-79.68-59.072H277.696a24.832 24.832 0 1 1 0-49.728h260.608c10.688-33.984 42.112-58.944 79.68-58.944s68.992 24.96 79.68 58.944h67.648a24.896 24.896 0 0 1 0 49.728z m-147.328-58.944a34.176 34.176 0 1 0 0 68.352 34.176 34.176 0 0 0 0-68.352zM765.312 205.824H490.56c-6.464 39.744-40.768 70.336-82.432 70.336s-76.032-30.592-82.496-70.336h-47.936a24.96 24.96 0 0 1 0-49.792H332.8c13.632-28.032 42.112-47.616 75.328-47.616s61.696 19.648 75.264 47.616h281.92a24.832 24.832 0 1 1 0 49.792z m-357.184-47.68a34.24 34.24 0 0 0 0 68.352 34.24 34.24 0 0 0 0-68.352z"  horiz-adv-x="1024" />

    
    <glyph glyph-name="filter" unicode="&#58888;" d="M679.232 67.392H224.512a8.448 8.448 0 0 0-8.256 8.256V681.6c0 4.416 3.84 8.256 8.256 8.256h521.088c4.48 0 8.256-3.84 8.256-8.256v-50.752a37.76 37.76 0 0 1 75.52 0V681.6a83.84 83.84 0 0 1-83.776 83.712H224.512A83.84 83.84 0 0 1 140.8 681.6v-606.016a83.84 83.84 0 0 1 83.712-83.712h454.72a37.76 37.76 0 0 1 0 75.52zM880.832 81.024l-126.144 145.024a205.056 205.056 0 0 1 51.712 136.128 206.976 206.976 0 0 1-206.784 206.72c-113.92 0-206.656-92.736-206.656-206.72s92.736-206.72 206.656-206.72c34.624 0 67.2 8.704 95.872 23.744l128.384-147.776a37.888 37.888 0 0 1 53.248-3.648 37.824 37.824 0 0 1 3.712 53.248zM468.288 362.176c0 72.384 58.88 131.328 131.264 131.328 72.448 0 131.328-58.944 131.328-131.328a131.392 131.392 0 0 0-262.592 0zM301.184 169.472h132.352a257.536 257.536 0 0 0-59.84 75.52H301.184a37.76 37.76 0 1 1 0-75.52zM301.184 416.384a37.76 37.76 0 0 1 0-75.456h44.864a233.792 233.792 0 0 0 4.864 75.456h-49.728zM460.288 575.04H301.184a37.696 37.696 0 1 1 0-75.456h84.352c19.392 30.08 44.864 55.872 74.752 75.456z"  horiz-adv-x="1024" />

    
    <glyph glyph-name="delete" unicode="&#58889;" d="M340.032 693.248h311.808a34.048 34.048 0 1 1 0 68.288H340.032a34.048 34.048 0 1 1 0-68.288zM818.816 638.656H173.12a34.112 34.112 0 1 1 0-68.288H224v-478.4c0-47.104 38.336-85.504 85.44-85.504h372.992c47.104 0 85.504 38.4 85.504 85.504V570.368h50.88a34.048 34.048 0 1 1 0 68.288z m-119.168-546.688a17.344 17.344 0 0 0-17.216-17.152H309.44a17.28 17.28 0 0 0-17.152 17.152V570.368h407.296v-478.4zM407.168 145.152a34.112 34.112 0 0 1 34.176 34.176V481.728a34.048 34.048 0 1 1-68.288 0v-302.464c0-18.816 15.232-34.112 34.112-34.112zM583.616 145.152a34.176 34.176 0 0 1 34.176 34.176V481.728a34.112 34.112 0 0 1-68.352 0v-302.464c0-18.816 15.232-34.112 34.176-34.112z"  horiz-adv-x="1024" />

    
    <glyph glyph-name="edit" unicode="&#58890;" d="M830.08 414.848a36.608 36.608 0 0 1-36.672-36.608v-280.128a18.56 18.56 0 0 0-18.304-18.368H267.008a18.624 18.624 0 0 0-18.432 18.368V658.368c0 9.984 8.448 18.368 18.432 18.368h273.088a36.672 36.672 0 0 1-0.064 73.344H267.008c-50.56 0-91.648-41.152-91.648-91.712v-560.256c0-50.56 41.088-91.648 91.648-91.648h508.032c50.496 0 91.584 41.088 91.584 91.648V378.24a36.544 36.544 0 0 1-36.544 36.608zM895.616 793.216a36.608 36.608 0 0 1-51.648-4.096L409.088 279.168a36.608 36.608 0 1 1 55.68-47.616l435.008 509.888a36.864 36.864 0 0 1-4.16 51.776z"  horiz-adv-x="1024" />

    
    <glyph glyph-name="dashboard" unicode="&#58891;" d="M498.368 768.896a382.528 382.528 0 0 1-382.144-382.144 382.528 382.528 0 0 1 382.144-382.08 382.592 382.592 0 0 1 382.08 382.08 382.528 382.528 0 0 1-382.08 382.144z m0-705.472a323.776 323.776 0 0 0-323.392 323.328 323.776 323.776 0 0 0 323.392 323.392 323.776 323.776 0 0 0 323.328-323.392 323.776 323.776 0 0 0-323.328-323.328zM275.072 470.336m-33.984 0a33.984 33.984 0 1 1 67.968 0 33.984 33.984 0 1 1-67.968 0ZM741.12 451.968m-33.984 0a33.984 33.984 0 1 1 67.968 0 33.984 33.984 0 1 1-67.968 0ZM527.744 333.12V530.048a29.312 29.312 0 1 1-58.816 0v-196.928a76.16 76.16 0 1 1 58.816 0zM359.04 580.608m-33.984 0a33.984 33.984 0 1 1 67.968 0 33.984 33.984 0 1 1-67.968 0ZM657.216 580.608m-33.984 0a33.984 33.984 0 1 1 67.968 0 33.984 33.984 0 1 1-67.968 0Z"  horiz-adv-x="1024" />

    
    <glyph glyph-name="line" unicode="&#58892;" d="M922.624 526.528a81.024 81.024 0 0 1-162.048 0c0-24 10.688-45.376 27.328-60.224l-60.288-201.024c-0.512-0.128-1.088-0.128-1.536-0.128L482.432 620.736c7.168 12.096 11.584 25.984 11.584 41.088a81.088 81.088 0 0 1-162.112 0c0-17.216 5.44-33.024 14.592-46.08l-193.088-463.168a80.896 80.896 0 0 1 14.464-160.576 80.64 80.64 0 1 1 51.968 142.72l186.304 446.784c2.368-0.192 4.48-0.768 6.848-0.768 4.544 0 8.96 0.704 13.184 1.344l243.648-355.712a80.576 80.576 0 0 1 69.504-122.112c44.8 0 81.024 36.224 81.024 81.024 0 24.128-10.688 45.44-27.264 60.288l60.224 200.96a81.024 81.024 0 0 1 69.312 80z"  horiz-adv-x="1024" />

    
    <glyph glyph-name="pie" unicode="&#58893;" d="M525.824 779.136h-28.16v-46.656h-15.616c-205.056 0-371.776-166.784-371.776-371.84s166.656-371.776 371.776-371.776a370.048 370.048 0 0 1 354.56 260.096l4.288 13.44 46.464-14.592 8.384 26.944a388.288 388.288 0 0 1-369.92 504.384z m-43.776-733.76a315.776 315.776 0 0 0-315.328 315.328 315.776 315.776 0 0 0 287.104 314.048v-334.72l319.296-100.544a313.6 313.6 0 0 0-291.072-194.112z m367.232 273.728L554.048 411.968V721.408a331.84 331.84 0 0 0 295.232-402.304z"  horiz-adv-x="1024" />

    
    <glyph glyph-name="plus" unicode="&#58894;" d="M512 775.296c-214.656 0-389.184-174.592-389.184-389.184S297.344-3.072 512-3.072s389.184 174.592 389.184 389.184S726.656 775.296 512 775.296z m0-717.376c-180.928 0-328.128 147.264-328.128 328.192S331.072 714.304 512 714.304s328.128-147.264 328.128-328.192-147.2-328.192-328.128-328.192zM687.168 414.976h-144V541.312a30.592 30.592 0 1 1-61.12 0v-126.336h-135.04a30.592 30.592 0 1 1 0-61.12h135.104v-148.416a30.528 30.528 0 1 1 61.12 0V353.92h144a30.528 30.528 0 1 1-0.064 61.056z"  horiz-adv-x="1024" />

    
    <glyph glyph-name="password" unicode="&#58895;" d="M707.328 462.976V564.16c0 107.712-87.616 195.328-195.328 195.328S316.736 671.872 316.736 564.16v-101.184a82.752 82.752 0 0 1-78.72-82.432v-138.112c0-37.312 21.568-83.264 50.176-107.008l115.584-96c27.008-22.464 72.832-39.424 106.688-39.424 33.472 0 79.36 16.512 106.688 38.336l117.568 94.208c29.248 23.296 51.328 69.184 51.328 106.624v141.44a82.752 82.752 0 0 1-78.72 82.368zM512 693.312a129.28 129.28 0 0 0 129.088-129.152V463.36H382.912V564.16A129.28 129.28 0 0 0 512 693.312z m207.808-454.208c0-17.344-12.8-44.096-26.368-54.912l-117.696-94.208c-15.552-12.416-46.656-23.744-65.344-23.744-18.176 0-49.344 11.712-64.384 24.128l-115.648 96.064c-13.504 11.136-26.24 38.4-26.24 56V380.544c0 9.024 7.552 16.64 16.64 16.64h382.4c9.152 0 16.64-7.616 16.64-16.64v-141.44zM512 331.008a33.024 33.024 0 0 1-33.088-33.088v-107.456a33.088 33.088 0 1 1 66.176 0V297.92A33.088 33.088 0 0 1 512 331.008z"  horiz-adv-x="1024" />

    
    <glyph glyph-name="power" unicode="&#58896;" d="M231.104 0c-26.176 0-51.456 10.816-69.376 29.824l-8.896 9.344a95.552 95.552 0 0 0 3.712 134.976l257.024 243.264a251.712 251.712 0 0 0 232.32 347.712 249.6 249.6 0 0 0 79.04-12.864l55.872-18.496-116.864-93.568a71.68 71.68 0 0 1-26.752-48.768c-2.112-19.392 3.328-38.4 15.424-53.504 26.304-32.896 73.216-37.12 103.488-12.928l71.04 56.896c2.688 2.112 4.864 4.672 7.104 7.104l39.872 43.136 15.04-56.32c5.312-20.864 8-41.728 8-62.144a251.712 251.712 0 0 0-251.392-251.392 247.04 247.04 0 0 0-84.032 14.592l-265.152-250.816A94.528 94.528 0 0 0 231.104 0zM637.76 701.056a187.648 187.648 0 0 1-156.864-276.672l13.824-25.408-24-16.256c-1.344-0.896-2.624-1.6-3.84-2.688l-266.496-252.224a31.68 31.68 0 0 1-1.28-44.672l8.896-9.408c11.712-12.224 32.64-12.8 44.8-1.216l266.688 252.288a30.144 30.144 0 0 1 5.184 6.912l14.848 25.088 26.368-12.48c25.344-12.032 52.288-18.112 80-18.112a187.776 187.776 0 0 1 187.328 178.688l-37.12-29.76c-24.064-19.2-54.4-29.824-85.248-29.824a136.32 136.32 0 0 0-106.816 51.136 137.024 137.024 0 0 0 20.032 193.664l13.696 10.944z"  horiz-adv-x="1024" />

    
    <glyph glyph-name="user" unicode="&#58897;" d="M498.88 369.088a388.608 388.608 0 0 0 400.192-362.496h-57.088a331.52 331.52 0 0 1-341.376 305.856c-170.496-5.376-307.648-138.56-319.168-305.856h-56.576c11.52 197.888 172.928 356.032 374.016 362.496z m12.288 348.992a132.8 132.8 0 1 1 0-265.6 132.8 132.8 0 0 1 0 265.6z m0 54.4a187.264 187.264 0 1 0 0-374.528 187.264 187.264 0 0 0 0 374.528"  horiz-adv-x="1024" />

    
    <glyph glyph-name="userInfo" unicode="&#58898;" d="M818.432 660.096h-110.4v35.712c0 39.232-31.872 71.104-71.04 71.104H205.504c-39.168 0-71.104-31.872-71.104-71.104v-620.416c0-39.168 31.936-71.04 71.104-71.04h612.928c39.168 0 71.104 31.872 71.104 71.04V588.928c0 39.232-31.936 71.168-71.104 71.168z m14.272-584.704c0-7.68-6.528-14.272-14.272-14.272H205.504a14.528 14.528 0 0 0-14.336 14.272V695.808c0 7.808 6.592 14.272 14.336 14.272h431.488c7.68 0 14.272-6.464 14.272-14.272v-504.064a28.352 28.352 0 1 1 56.768 0v411.52h110.4c7.744 0 14.272-6.592 14.272-14.336v-513.536zM321.344 420.416h210.688c23.488 0 42.688 19.2 42.688 42.688V564.096c0 23.488-19.2 42.688-42.688 42.688H321.344c-23.488 0-42.688-19.2-42.688-42.688v-100.992c0-23.488 19.2-42.688 42.688-42.688zM547.712 337.088H307.2a28.416 28.416 0 0 1 0-56.832h240.512a28.416 28.416 0 0 1 0 56.832zM547.712 197.888H307.2a28.416 28.416 0 0 1 0-56.896h240.512a28.352 28.352 0 0 1 0 56.896z"  horiz-adv-x="1024" />

    
    <glyph glyph-name="setUp" unicode="&#58899;" d="M512 214.656c-96.32 0-174.656 78.336-174.656 174.592S415.68 563.84 512 563.84c96.256 0 174.656-78.4 174.656-174.656S608.256 214.656 512 214.656z m0 293.312a118.848 118.848 0 0 1-118.72-118.72c0-65.408 53.248-118.656 118.72-118.656a118.784 118.784 0 0 1 118.656 118.656A118.848 118.848 0 0 1 512 507.968zM649.92 4.416c-22.72 0-46.72 13.824-71.296 41.088a89.6 89.6 0 0 1-133.248 0c-24.64-27.264-48.64-41.088-71.296-41.088a51.456 51.456 0 0 0-37.568 16.128c-15.424 16.192-22.336 42.624-20.48 78.528a89.728 89.728 0 0 1-23.808 67.264 88.768 88.768 0 0 1-65.152 27.136l-5.248-0.192c-64-3.328-85.12 23.616-91.2 39.36-7.296 18.944-6.656 49.92 37.632 89.984 19.84 17.856 30.72 41.472 30.72 66.56 0 25.152-10.944 48.768-30.72 66.624-44.288 40-44.928 71.04-37.632 89.984 6.016 15.744 26.752 42.56 91.2 39.36l5.248-0.192c25.344 0 48.512 9.6 65.152 27.136 16.704 17.536 25.216 41.408 23.808 67.264-1.792 35.904 5.056 62.272 20.48 78.528a51.392 51.392 0 0 0 37.504 16.128c22.72 0 46.72-13.824 71.36-41.088a89.728 89.728 0 0 1 133.248 0c24.576 27.264 48.576 41.088 71.296 41.088 14.336 0 27.712-5.76 37.568-16.192 15.36-16.192 22.272-42.56 20.416-78.464-1.344-25.792 7.104-49.664 23.872-67.264 16.64-17.472 39.68-27.136 65.088-27.136l5.248 0.192c64.64 3.2 85.184-23.616 91.264-39.36 7.296-18.944 6.656-49.984-37.632-89.984a88.96 88.96 0 0 1-30.656-66.624c0-25.088 10.88-48.704 30.656-66.56 44.288-40.064 44.928-70.976 37.632-89.92-6.08-15.808-26.688-42.816-91.264-39.424l-5.248 0.192c-25.344 0-48.448-9.6-65.088-27.136a89.344 89.344 0 0 1-23.872-67.264c1.792-35.904-5.056-62.272-20.416-78.464a51.264 51.264 0 0 0-37.568-16.192zM512 132.032c41.152 0 79.424-17.408 108.032-49.152 14.784-16.384 24.192-20.864 27.968-22.208 1.792 3.584 5.248 13.44 4.096 35.456a145.152 145.152 0 0 0 39.168 108.608 144.96 144.96 0 0 0 113.664 44.288c20.544-1.216 31.872 2.304 35.456 4.032-1.28 3.776-5.824 13.12-22.208 27.968-31.616 28.608-49.152 66.944-49.152 108.032s17.472 79.488 49.152 108.096c16.384 14.784 20.928 24.128 22.208 27.968-3.648 1.792-15.04 5.312-35.456 4.032a144.384 144.384 0 0 0-113.664 44.288 144.64 144.64 0 0 0-39.168 108.544c1.152 22.08-2.304 31.936-4.096 35.456-3.776-1.216-13.12-5.76-27.968-22.144-28.608-31.488-66.88-48.96-108.032-48.96s-79.488 17.472-108.096 49.152c-14.784 16.32-24.128 20.864-27.904 22.144-1.856-3.584-5.248-13.44-4.096-35.456a145.088 145.088 0 0 0-39.168-108.544 144.128 144.128 0 0 0-105.6-44.48l-8.064 0.192c-20.48 1.28-31.872-2.24-35.456-4.032 1.28-3.84 5.824-13.12 22.208-27.968 31.616-28.608 49.152-67.008 49.152-108.096s-17.6-79.488-49.216-108.096c-16.448-14.784-20.928-24.192-22.272-27.968 3.648-1.856 15.04-5.248 35.52-4.032 44.544 2.048 84.608-13.76 113.664-44.288 27.392-28.8 41.344-67.392 39.168-108.608-1.152-22.016 2.24-31.808 4.096-35.456 3.776 1.344 13.12 5.824 27.904 22.208A144.832 144.832 0 0 0 512 132.032z"  horiz-adv-x="1024" />

    
    <glyph glyph-name="down" unicode="&#58900;" d="M849.024 479.808a33.472 33.472 0 0 1-56.64 24.32l-257.92-243.52a18.368 18.368 0 0 0-25.28 0.512L269.888 503.424a33.536 33.536 0 1 1-47.744-47.232l239.296-242.24a85.76 85.76 0 0 1 119.04-2.112l257.92 243.52a33.472 33.472 0 0 1 10.624 24.448z"  horiz-adv-x="1024" />

    
    <glyph glyph-name="router" unicode="&#58901;" d="M899.456 316.992a83.84 83.84 0 0 1-4.352 49.792l-48.384 123.712c-14.784 37.696-52.288 66.24-87.232 66.24h-19.008V686.272c0 19.072-12.8 34.24-28.608 34.24-15.872 0-28.608-15.168-28.608-34.24V556.8H324.672V686.272c0 19.072-12.864 34.24-28.672 34.24s-28.672-15.168-28.672-34.24V556.8h-2.624c-34.496 0-72.448-27.584-88.32-64.064l-54.528-125.44a79.808 79.808 0 0 1-3.328-57.6 95.36 95.36 0 0 1-17.408-55.36v-142.272c0-47.296 32.128-85.696 71.68-85.696h678.144c39.488 0 71.616 38.4 71.616 85.696v142.272c0 24.832-9.024 46.976-23.104 62.656zM227.2 461.12c6.016 13.696 24.576 27.264 37.504 27.264h494.72c12.48 0 30.016-13.44 35.328-26.944l47.552-121.344H174.656l52.544 121.024z m638.144-349.056c0-9.344-6.656-17.216-14.4-17.216H172.8c-7.808 0-14.4 7.872-14.4 17.216v142.272c0 9.344 6.464 17.152 14.208 17.28H850.944c7.744 0 14.4-7.872 14.4-17.28v-142.272zM251.776 227.84c-15.808 0-28.672-15.296-28.672-34.24v-23.872c0-18.944 12.864-34.24 28.672-34.24s28.608 15.296 28.608 34.24v23.872c0 18.88-12.8 34.24-28.608 34.24zM344.576 227.84c-15.872 0-28.672-15.296-28.672-34.24v-23.872c0-18.944 12.8-34.24 28.672-34.24 15.808 0 28.608 15.296 28.608 34.24v23.872c0 18.88-12.8 34.24-28.608 34.24z"  horiz-adv-x="1024" />

    
    <glyph glyph-name="up" unicode="&#58902;" d="M830.336 222.336a33.472 33.472 0 0 0-56.64-24.32l-257.92 243.52a18.368 18.368 0 0 1-25.28-0.512l-239.296-242.24a33.536 33.536 0 1 0-47.744 47.232l239.296 242.24a85.76 85.76 0 0 0 119.04 2.112l257.92-243.52c7.04-6.72 10.624-15.616 10.624-24.512z"  horiz-adv-x="1024" />

    
    <glyph glyph-name="right" unicode="&#58903;" d="M383.36 32.768a33.472 33.472 0 0 0-24.32 56.64l243.52 257.92a18.368 18.368 0 0 1-0.512 25.28L359.744 611.904a33.536 33.536 0 1 0 47.232 47.744l242.24-239.296a85.76 85.76 0 0 0 2.112-119.04l-243.52-257.92a33.344 33.344 0 0 0-24.448-10.624z"  horiz-adv-x="1024" />

    
    <glyph glyph-name="back" unicode="&#58904;" d="M636.16 553.792H440.064V659.008c0 10.944-7.68 15.36-17.152 9.856L172.416 524.16c-9.472-5.44-9.472-14.336 0-19.776l250.496-144.64c9.408-5.44 17.152-1.024 17.152 9.856V474.88H636.16c79.04 0 143.36-64.32 143.36-143.424s-64.32-143.488-143.36-143.488H315.52a39.424 39.424 0 1 1 0-78.976h320.64a222.72 222.72 0 0 1 222.4 222.528A222.592 222.592 0 0 1 636.16 553.792z"  horiz-adv-x="1024" />

    
    <glyph glyph-name="menu" unicode="&#58905;" d="M388.48 766.144H201.536c-43.072 0-78.08-35.008-78.08-78.08V501.12c0-43.072 35.008-78.08 78.08-78.08H388.48c43.072 0 78.08 35.008 78.08 78.08V688.064c0 43.072-35.008 78.08-78.08 78.08z m7.68-265.024c0-4.16-3.52-7.68-7.68-7.68H201.536a7.808 7.808 0 0 0-7.68 7.68V688.064c0 4.16 3.584 7.68 7.68 7.68H388.48c4.16 0 7.68-3.52 7.68-7.68V501.12zM822.464 766.144h-186.88c-43.136 0-78.144-35.008-78.144-78.08V501.12c0-43.072 35.008-78.08 78.144-78.08h186.88c43.136 0 78.144 35.008 78.144 78.08V688.064a78.272 78.272 0 0 1-78.144 78.08z m7.744-265.024c0-4.16-3.52-7.68-7.744-7.68h-186.88a7.808 7.808 0 0 0-7.68 7.68V688.064c0 4.16 3.584 7.68 7.68 7.68h186.88c4.224 0 7.744-3.52 7.744-7.68V501.12zM388.48 333.568H201.536c-43.072 0-78.08-35.072-78.08-78.08v-187.008c0-43.072 35.008-78.08 78.08-78.08H388.48c43.072 0 78.08 35.008 78.08 78.08v187.008c0 43.008-35.008 78.08-78.08 78.08z m7.68-265.088c0-4.096-3.52-7.68-7.68-7.68H201.536a7.872 7.872 0 0 0-7.68 7.68v187.008c0 4.096 3.584 7.68 7.68 7.68H388.48c4.16 0 7.68-3.584 7.68-7.68v-187.008zM822.464 333.568h-186.88c-43.136 0-78.144-35.072-78.144-78.08v-187.008c0-43.072 35.008-78.08 78.144-78.08h186.88c43.136 0 78.144 35.008 78.144 78.08v187.008a78.272 78.272 0 0 1-78.144 78.08z m7.744-265.088c0-4.096-3.52-7.68-7.744-7.68h-186.88a7.872 7.872 0 0 0-7.68 7.68v187.008c0 4.096 3.584 7.68 7.68 7.68h186.88c4.224 0 7.744-3.584 7.744-7.68v-187.008z"  horiz-adv-x="1024" />

    
    <glyph glyph-name="Cirtical" unicode="&#58906;" d="M706.218667 531.84c-84.309333 174.293333-249.130667 285.952-275.456 291.370667 0 0 180.096-208.768-80.896-477.482667-89.514667-92.074667-101.76-236.970667-69.674667-339.541333 42.666667-136.277333 139.264-122.154667 139.264-122.154667l6.4-0.469333c-46.677333 41.685333-79.36 137.685333-6.229333 289.066666 39.936 82.645333 118.186667 135.594667 130.688 138.112 0 0-85.418667-98.944 38.357333-226.432 42.368-43.733333 48.298667-112.384 32.938667-161.066666-9.173333-29.525333-23.765333-44.074667-36.821334-51.242667 128.64 7.893333 331.050667 226.048 121.429334 659.84z"  horiz-adv-x="1024" />

    
    <glyph glyph-name="Minor" unicode="&#58907;" d="M854.025256 167.751896c-29.183906 189.568869-176.95906 143.09392-184.634596 418.822789-3.626902 131.285404-144.401292 252.280528-178.392951 258.058267 0 0 137.400528-227.609162-112.686989-464.327753 11.133744 46.601468-18.851454 159.541497-143.093921 202.853451 88.395183-157.981086-86.539559-331.102378-65.832481-468.376387 16.953656-182.441585 220.017973-229.422613 220.017973-229.422613s6.410338-0.548253 16.574097-1.180852c-37.660734 27.159589-59.675183 74.140617-53.264846 115.175213 13.621968 88.310837 82.406578 66.675947 86.075653 195.135741 1.602584 61.235595 67.182026 117.536916 82.997005 120.278179 0 0-63.976857-106.150132 52.5479-216.348898-5.313833 21.76141 8.898561 74.351483 66.71812 94.468135-41.287636-73.634537 40.275477-154.227665 30.617797-218.204523-5.988605-64.39859-61.741674-92.570338-88.35301-102.481057 3.879941-0.168693 6.83207-0.25304 7.46467-0.168693 164.60229-1.939971 283.910484 161.818854 263.245579 295.719001z"  horiz-adv-x="1024" />

    
    <glyph glyph-name="Normal" unicode="&#58908;" d="M751.427525 585.425861c32.207688 57.385921 171.050092 111.747046 105.612249 153.881178l-64.92661 41.835913c-62.45565-11.374938-104.973207-93.044433-111.448827-156.309535-121.417873 46.096189-215.271759-26.285904-281.519055-153.327343-43.071393-82.521551-84.012648-122.14212-175.097354-128.362123-33.698785 3.195207-58.152771-3.280413-68.803461-21.13097-16.870694-27.777001 5.879181-72.211682 56.107838-121.503079 43.540023-42.773174 109.063072-92.575803 186.003661-139.055417 20.491929-12.482609 41.111666-24.113164 61.049759-34.891663l2.47096 49.50441a1141.455816 1141.455816 0 0 0-40.430022 23.516725c-74.128807 44.818106-136.669662 92.277584-177.866533 132.792811-34.84906 33.954402-53.935097 58.834415-49.206191 66.46031 4.728907 7.838908 35.445498 2.385755 81.712099-12.525212 55.000166-17.89316 126.061574-51.336329 200.190381-96.282244 18.276585-10.991513 35.701115-22.153437 52.401398-33.31536 12.65302-6.731236 24.539191-15.081378 35.871526-24.411383l7.072058-5.751373c32.633716-24.198369 60.751539-47.715094 82.691962-69.3999 34.678649-33.869196 53.764686-58.791812 49.163588-66.46031-4.686304-7.7111-35.530704-2.385755-81.797304 12.653021a615.652521 615.652521 0 0 0-50.995507 19.213846l-0.255616-4.856715c19.512065-13.41987 31.100017-32.761524 35.573307-56.022633l1.789316-0.681644c67.141954-21.684806 116.90198-21.258778 133.815277 6.603428 9.543019 15.805625 6.305209 37.021801-7.583292 61.433184l0.085205 0.681644c-40.685638 87.633883-25.220835 143.060077 29.438509 221.662173 86.185389 123.846231 104.461974 246.797803-11.119321 334.048261z m-266.395074-585.10634c2.343152 47.161258 4.643701 94.450325 7.029456 141.56898 19.938093-6.603428 37.533034-17.594941 53.679481-31.057414-1.576302-36.382759-3.365618-72.765518-4.941921-109.148278 24.027958-10.224663 38.129472-29.481112 38.129473-61.944417 0-32.591113-30.120153-67.354968-67.227159-67.354967-37.064403 0-67.39757 35.445498-67.397571 67.354967s18.276585 49.674821 40.728241 60.581129z m357.863206 723.267099s8.563155-8.435347 3.110001-22.238642c-6.220003-16.231653-68.16442-50.612082-95.600599-95.131969 0 0-5.666167 1.533699-3.919454 3.919454 1.661508 2.385755 14.058912 45.542353 36.127143 72.680313 21.89782 26.967549 60.282909 40.770844 60.282909 40.770844z m-354.625396-325.911133c-13.973706-24.240972-125.635547-51.464137-125.635546-51.464137 58.877018 52.870028 69.485106 112.002663 111.491429 162.444333 39.577966 47.587286 86.185389 84.736895 147.703778 91.127309-69.186886-73.745382-87.207855-111.448827-133.559661-202.107505z"  horiz-adv-x="1024" />

    
    <glyph glyph-name="Major" unicode="&#58909;" d="M766.421859 542.496501c-29.728757-6.952349-144.293236-88.887704-101.811396-273.743419-108.721093 159.050983 17.06098 191.21093-15.909363 402.169944C628.953016 785.572809 504.749084 890.028657 469.006331 896.085305c0 0 144.250583-239.10963-118.445851-487.730757 11.729424 48.965012-19.833389 167.624125-150.264579 213.048984 92.811729-165.96068-90.892369-347.830723-69.13962-492.038654 17.828724-191.680107 231.176275-241.02899 231.176275-241.02899s6.824392-2.004665 18.596468-4.435855c-27.51083 17.402199-53.016994 46.576475-55.917361 93.195602 3.326891 102.323226 60.907697 68.798401 43.54815 201.66078 12.411863-3.284239 60.395868-42.396534 42.567145-130.516495 45.552816 76.006664-7.165611 91.190936 6.568477 191.722759 8.231923 54.637787 60.481173 104.455848 75.324225 107.398867 0 0-60.310563-114.009997 49.732756-232.455848-4.947684 23.288237 8.231923 79.845385 62.827058 101.512829-38.899034-79.162946 38.173942-165.79007 29.046317-234.631123-5.630123-67.689437-56.002666-98.185938-81.722092-109.36088 7.037654 0.725092 13.776741 1.108964 20.857047 2.047318 59.286904 2.08997 282.572476 51.524159 296.39187 245.038321-8.01866 214.37121-145.316894 144.335888-103.730757 422.984338z"  horiz-adv-x="1024" />

    
    <glyph glyph-name="Area" unicode="&#58910;" d="M515.968 775.296c169.216-1.152 297.6-164.224 233.536-319.488-49.92-121.088-131.52-229.248-201.664-341.504-19.776-31.616-51.904-25.536-70.08 2.432C412.16 217.984 334.016 314.752 289.344 424.96c-81.28 199.936 54.464 347.136 226.624 350.336z m-12.8-580.608l22.656-1.152c50.56 88.96 104.512 176.128 150.4 267.392 34.688 68.992 15.744 139.392-39.808 192.96a177.344 177.344 0 0 1-207.104 27.136c-60.288-33.216-125.376-136.32-100.736-186.176 51.136-103.616 115.584-200.512 174.592-300.16zM259.968 37.056h506.432c-30.912 45.76-60.288 83.008-82.048 124.288-8.832 16.768-1.216 42.048-1.024 63.552 19.904-7.104 47.104-8.384 58.24-22.528 41.344-51.968 78.592-107.392 114.752-163.136 32.768-50.24 19.52-76.992-39.296-77.312-203.712-1.152-407.488-1.024-611.2 0.384-49.408 0.32-64.576 28.48-37.632 70.912a2218.688 2218.688 0 0 0 121.344 173.376c9.472 12.224 35.776 11.648 54.336 16.896 1.024-19.84 9.728-43.84 1.6-58.688-22.784-41.536-52.416-79.36-85.504-127.744zM633.536 503.488c-1.728-67.328-53.696-116.672-121.792-115.84-65.088 0.704-119.936 55.808-119.552 120 0.448 66.112 61.12 123.584 126.784 120.128a120.128 120.128 0 0 0 114.56-124.288zM515.584 572.8c-22.464-29.12-48.192-48.576-45.632-62.656 3.52-18.688 29.312-33.28 45.504-49.472 14.72 15.552 39.744 30.208 41.344 46.976 1.472 16.384-20.864 35.008-41.216 65.152z"  horiz-adv-x="1024" />

    
    <glyph glyph-name="NE" unicode="&#58911;" d="M854.08 231.744a35.648 35.648 0 0 0-35.584 35.584V347.84a35.648 35.648 0 0 1-35.584 35.584H570.048a35.648 35.648 0 0 0-35.584 35.584v13.824c0 19.584 16 35.584 35.584 35.584h165.632c19.584 0 35.584 16 35.584 35.584V729.728a35.648 35.648 0 0 1-35.584 35.584H289.536a35.648 35.648 0 0 1-35.584-35.584v-225.792c0-19.584 16-35.584 35.584-35.584h165.568c19.584 0 35.584-16 35.584-35.584v-13.888c0-19.584-16-35.584-35.584-35.584H242.368a35.648 35.648 0 0 1-35.584-35.584v-80.512c0-19.584-16-35.584-35.584-35.584H146.56a35.648 35.648 0 0 1-35.584-35.584v-150.784c0-19.584 16-35.584 35.584-35.584h163.008c19.584 0 35.584 16 35.584 35.584v150.784a35.648 35.648 0 0 1-35.584 35.584h-23.424a35.648 35.648 0 0 0-35.584 35.584v26.624c0 19.584 16 35.584 35.584 35.584h169.024c19.584 0 35.584-16 35.584-35.584v-26.496c0-19.584-16-35.584-35.584-35.584h-24.128a35.648 35.648 0 0 1-35.584-35.584v-150.784c0-19.584 16-35.584 35.584-35.584h163.072c19.584 0 35.584 16 35.584 35.584v150.784a35.648 35.648 0 0 1-35.584 35.584h-24.064a35.648 35.648 0 0 0-35.584 35.584v26.496c0 19.584 16 35.584 35.584 35.584h169.024c19.584 0 35.584-16 35.584-35.584v-26.496c0-19.584-16-35.584-35.584-35.584h-24.64a35.648 35.648 0 0 1-35.584-35.584v-150.784c0-19.584 16-35.584 35.584-35.584h163.072c19.584 0 35.584 16 35.584 35.584v150.784a35.648 35.648 0 0 1-35.584 35.584h-23.424zM297.728 675.84c0 19.584 16 35.584 35.584 35.584h358.528c19.584 0 35.584-16 35.584-35.584v-117.952c0-19.584-16-35.584-35.584-35.584H333.312a35.648 35.648 0 0 0-35.584 35.584V675.84z m3.648-576.576c0-19.584-16-35.584-35.584-35.584h-75.52a35.648 35.648 0 0 0-35.584 35.584v42.944c0 19.584 16 35.584 35.584 35.584h75.52c19.584 0 35.584-16 35.584-35.584v-42.944z m284.544 0c0-19.584-16-35.584-35.584-35.584h-75.52a35.648 35.648 0 0 0-35.584 35.584v42.944c0 19.584 16 35.584 35.584 35.584H550.4c19.584 0 35.584-16 35.584-35.584v-42.944z m283.328 0c0-19.584-16-35.584-35.584-35.584h-75.392a35.648 35.648 0 0 0-35.584 35.584v42.944c0 19.584 16 35.584 35.584 35.584h75.392c19.584 0 35.584-16 35.584-35.584v-42.944z"  horiz-adv-x="1024" />

    
    <glyph glyph-name="Log" unicode="&#58912;" d="M826.368 658.496h-110.4v35.712c0 39.232-31.872 71.104-71.04 71.104H213.44c-39.168 0-71.104-31.872-71.104-71.104v-620.416c0-39.168 31.936-71.04 71.104-71.04h612.928c39.168 0 71.104 31.872 71.104 71.04V587.328c0 39.232-31.936 71.168-71.104 71.168z m14.272-584.768c0-7.68-6.528-14.272-14.272-14.272H213.44a14.528 14.528 0 0 0-14.336 14.272V694.208c0 7.808 6.592 14.272 14.336 14.272h431.488c7.68 0 14.272-6.464 14.272-14.272v-504.064a28.352 28.352 0 1 1 56.768 0V601.6h110.4c7.744 0 14.272-6.592 14.272-14.336v-513.536zM329.344 418.816h210.688c23.488 0 42.688 19.2 42.688 42.688V562.496c0 23.488-19.2 42.688-42.688 42.688H329.344c-23.488 0-42.688-19.2-42.688-42.688v-100.992c0-23.488 19.136-42.688 42.688-42.688zM555.648 335.424H315.136a28.416 28.416 0 0 1 0-56.832h240.512a28.416 28.416 0 1 1 0 56.832zM555.648 196.224H315.136a28.416 28.416 0 0 1 0-56.896h240.512a28.352 28.352 0 0 1 0 56.896z"  horiz-adv-x="1024" />

    
    <glyph glyph-name="AlarmManagement" unicode="&#58913;" d="M710.656 623.232c29.824 52.992 158.016 103.296 97.6 142.272l-60.096 38.592c-57.664-10.56-96.96-85.952-102.912-144.384-112.064 42.624-198.912-24.32-260.096-141.568-39.808-76.288-77.504-112.832-161.728-118.592-31.168 2.944-53.824-3.072-63.68-19.584-15.488-25.6 5.504-66.624 51.968-112.256 40.192-39.424 100.672-85.44 171.904-128.384 18.944-11.52 37.952-22.336 56.32-32.256l2.176 45.76c-12.16 6.784-24.704 14.016-37.312 21.76-68.48 41.344-126.208 85.248-164.352 122.624-32.128 31.296-49.728 54.336-45.44 61.44 4.416 7.168 32.768 2.176 75.52-11.584 50.816-16.64 116.48-47.488 185.024-89.024 16.896-10.112 32.896-20.48 48.32-30.656 11.84-6.336 22.72-14.016 33.28-22.592l6.464-5.44c30.144-22.4 56.256-44.032 76.352-64.064 32.192-31.296 49.792-54.4 45.44-61.376-4.288-7.104-32.768-2.24-75.52 11.712a562.432 562.432 0 0 0-47.104 17.664l-0.192-4.416c17.984-12.416 28.672-30.208 32.832-51.84l1.664-0.576c62.08-20.096 108.032-19.648 123.584 6.08 8.896 14.592 5.888 34.24-6.848 56.832l0.064 0.576c-37.632 80.96-23.36 132.288 27.2 204.864 79.488 114.368 96.256 227.84-10.432 308.416z m-246.08-540.544c2.048 43.584 4.288 87.296 6.464 130.816 18.432-6.144 34.688-16.256 49.536-28.672l-4.416-100.736c22.144-9.472 35.136-27.328 35.136-57.28 0-30.144-27.84-62.272-62.208-62.272-34.24 0-62.208 32.768-62.208 62.272s16.768 45.888 37.696 55.872z m330.496 668.288a19.2 19.2 0 0 1 3.072-20.544c-5.888-14.976-62.976-46.848-88.384-87.936 0 0-5.248 1.408-3.776 3.584 1.6 2.304 13.12 42.112 33.344 67.136 20.352 25.024 55.744 37.76 55.744 37.76zM467.52 449.728c-12.928-22.272-116.16-47.424-116.16-47.424 54.528 48.896 64.256 103.36 103.04 150.08 36.608 43.968 79.744 78.336 136.576 84.16-64-68.16-80.576-102.976-123.456-186.816z"  horiz-adv-x="1024" />

    
    <glyph glyph-name="Security" unicode="&#58914;" d="M837.504 724.48a27.712 27.712 0 0 1-26.816-0.128c-53.504-30.976-110.784-31.232-166.656-2.24-29.312 19.968-63.808 45.696-97.6 85.76a26.56 26.56 0 0 1-22.336 9.472l-1.152-7.936-1.152 8.064a27.2 27.2 0 0 1-21.184-10.24 357.248 357.248 0 0 0-93.504-83.264c-58.496-31.168-115.84-31.104-170.176 0.384a27.648 27.648 0 0 1-26.944 0.064 27.008 27.008 0 0 1-13.44-23.296v-391.552c0-52.8 14.592-103.68 43.008-150.72 37.248-72.064 115.648-166.656 276.672-207.168 1.216-0.512 2.24-0.64 3.968-0.832 1.28-0.192 2.368-0.32 3.584-0.32h0.064c1.28 0 2.432 0.128 2.752 0.256l3.84 0.576c162.048 40.896 240.448 135.424 277.44 207.04a289.28 289.28 0 0 1 43.264 151.168V701.12a27.2 27.2 0 0 1-13.632 23.36zM250.432 659.008c65.088-22.976 134.08-13.376 200.32 28.032a387.2 387.2 0 0 1 73.088 60.224c16.768-17.664 41.728-40.576 72.96-60.224 66.368-41.408 135.424-51.072 200.384-28.032v-341.056c0-0.576-0.704-61.248-34.688-129.984l-3.712-7.104c-22.912-36.032-56.512-70.272-99.84-101.632a615.872 615.872 0 0 0-135.168-73.152c-33.792 13.056-171.072 71.232-238.016 180.48-34.496 68.864-35.392 130.816-35.392 131.392V659.008zM423.296 342.656l82.88-65.92a27.2 27.2 0 0 1 20.992-5.632 26.624 26.624 0 0 1 18.112 11.648l87.872 131.392a26.88 26.88 0 0 1-7.36 37.312 27.328 27.328 0 0 1-37.312-7.488L516.864 337.024l-59.968 47.744a27.584 27.584 0 0 1-37.824-4.288 27.008 27.008 0 0 1 4.224-37.824zM535.68 187.52c101.12 0 183.36 82.304 183.36 183.424S636.8 554.368 535.68 554.368 352.256 472.064 352.256 370.944 434.56 187.52 535.68 187.52z m0 312.96c71.488 0 129.6-58.112 129.6-129.536a129.728 129.728 0 0 0-129.6-129.6 129.728 129.728 0 0 0-129.536 129.6c0 71.424 58.112 129.536 129.536 129.536z"  horiz-adv-x="1024" />

    


  </font>
</defs>
</svg>
